#!OML:ASF F:\twosubjects\two\wednesday\Session 1\rory1.ASF
:FULLY-SPECIFIED
:DEGREES
82
root 1.75709 18.2934 -3.65892 2.02035 2.9831 -2.05382
lowerback 2.24376 1.03302 2.65853
upperback 1.26611 1.43166 2.13784
thorax 0.0508 0.722391 0.670149
lowerneck -12.912 -3.47477 -3.6954
upperneck 17.5317 -4.19672 1.06936
head 7.63204 -2.14295 0.525165
rclavicle -3.52843e-014 -1.11319e-014
rhumerus -16.5234 -21.4148 -77.6755
rradius 19.827
rwrist 17.1158
rhand -16.8685 33.1775
rfingers 7.12502
rthumb 9.36227 3.40541
lclavicle -3.52843e-014 -1.11319e-014
lhumerus -39.6903 -37.5763 77.026
lradius 84.6592
lwrist 6.09047
lhand -29.2959 6.38648
lfingers 7.12502
lthumb -2.63745 36.3499
rfemur -11.851 3.73954 28.9306
rtibia 27.1324
rfoot -14.8504 -4.9987
rtoes 15.6876
lfemur -24.6755 0.37759 -13.8278
ltibia 67.9744
lfoot -1.15233 -0.500182
ltoes -10.3577
83
root 1.75144 18.2924 -3.50617 2.06246 2.95638 -2.20154
lowerback 2.42247 1.10423 2.91102
upperback 1.11162 1.54465 2.1088
thorax -0.199135 0.776789 0.49103
lowerneck -12.7075 -3.54522 -4.18379
upperneck 17.485 -4.26538 1.40796
head 7.60164 -2.17709 0.712208
rclavicle 5.11871e-015 -3.97569e-016
rhumerus -15.7831 -19.1661 -78.4291
rradius 20.9677
rwrist 15.3014
rhand -16.6331 33.0966
rfingers 7.12502
rthumb 9.58937 3.33486
lclavicle 5.11871e-015 -3.97569e-016
lhumerus -39.6147 -38.3471 77.0633
lradius 85.0774
lwrist 7.03661
lhand -28.6517 6.87801
lfingers 7.12502
lthumb -2.01533 36.8482
rfemur -11.4966 3.55145 29.1839
rtibia 27.1244
rfoot -14.4143 -5.16477
rtoes 16.0065
lfemur -25.8724 0.254902 -13.6791
ltibia 67.5837
lfoot -2.3696 -0.323133
ltoes -11.353
84
root 1.73781 18.2754 -3.37522 1.94175 3.21502 -2.64879
lowerback 2.88019 0.985415 3.40937
upperback 1.08521 1.42181 2.12459
thorax -0.471888 0.71331 0.222599
lowerneck -12.9483 -3.48915 -4.21772
upperneck 17.5515 -4.16506 1.37787
head 7.66351 -2.13309 0.714107
rclavicle 1.51076e-014 9.54166e-015
rhumerus -14.9049 -16.9413 -79.3745
rradius 22.39
rwrist 13.3031
rhand -16.035 32.5265
rfingers 7.12502
rthumb 10.1664 2.79217
lclavicle 1.51076e-014 9.54166e-015
lhumerus -39.4983 -38.6812 76.7236
lradius 85.4851
lwrist 7.28856
lhand -28.0256 7.924
lfingers 7.12502
lthumb -1.41065 37.8991
rfemur -10.8415 3.50498 29.8663
rtibia 26.9601
rfoot -13.8376 -5.67292
rtoes 14.0639
lfemur -27.0788 -0.108732 -13.1067
ltibia 67.048
lfoot -3.26595 -0.0341238
ltoes -12.6822
85
root 1.74322 18.267 -3.203 2.02774 2.50696 -3.117
lowerback 2.60582 1.07967 4.08605
upperback 1.10527 1.54748 2.01936
thorax -0.273596 0.780399 -0.259948
lowerneck -12.8943 -3.33581 -3.82283
upperneck 17.4424 -3.99409 1.14739
head 7.59897 -2.04757 0.59388
rclavicle 5.46658e-016 -3.57812e-015
rhumerus -14.2376 -14.5779 -80.4743
rradius 23.828
rwrist 11.2835
rhand -15.715 32.3636
rfingers 7.12502
rthumb 10.4751 2.64459
lclavicle 5.46658e-016 -3.57812e-015
lhumerus -39.604 -38.7142 76.2129
lradius 85.7041
lwrist 7.22704
lhand -28.6126 7.98218
lfingers 7.12502
lthumb -1.97754 37.9528
rfemur -10.2465 3.60796 30.4133
rtibia 26.8887
rfoot -14.2307 -5.12465
rtoes 12.5536
lfemur -27.9817 0.314056 -12.6009
ltibia 66.2207
lfoot -4.37151 0.281161
ltoes -13.692
86
root 1.75195 18.2654 -3.03059 1.99218 1.89216 -3.29527
lowerback 2.68095 1.16922 4.42416
upperback 1.04519 1.68107 1.92466
thorax -0.359848 0.845779 -0.551307
lowerneck -12.6351 -3.22787 -3.73515
upperneck 17.2445 -3.85823 1.06999
head 7.48103 -1.98532 0.573866
rclavicle -1.6201e-014 -2.70347e-014
rhumerus -13.8544 -12.155 -81.2693
rradius 25.3182
rwrist 9.28575
rhand -15.9481 32.8196
rfingers 7.12502
rthumb 10.2502 3.08936
lclavicle -1.6201e-014 -2.70347e-014
lhumerus -39.4946 -38.8499 75.9331
lradius 85.6282
lwrist 7.14762
lhand -29.0421 7.91408
lfingers 7.12502
lthumb -2.39234 37.8804
rfemur -9.53061 3.56764 30.6005
rtibia 26.8195
rfoot -14.8412 -4.75311
rtoes 11.699
lfemur -28.6515 0.545818 -12.482
ltibia 65.0993
lfoot -5.37975 0.660295
ltoes -13.5014
87
root 1.7563 18.265 -2.86655 2.06692 1.5356 -3.22963
lowerback 2.62984 1.33924 4.53754
upperback 1.10085 1.90371 1.79889
thorax -0.256551 0.959902 -0.746652
lowerneck -12.8987 -3.21904 -3.73046
upperneck 17.2029 -3.80748 0.924383
head 7.50992 -1.9728 0.526944
rclavicle 4.47266e-015 -2.22639e-014
rhumerus -13.243 -10.3104 -81.7487
rradius 26.8028
rwrist 7.43186
rhand -16.4298 33.2784
rfingers 7.12502
rthumb 9.78546 3.52574
lclavicle 4.47266e-015 -2.22639e-014
lhumerus -38.9817 -39.2536 75.5921
lradius 85.5908
lwrist 6.58106
lhand -28.8915 7.6761
lfingers 7.12502
lthumb -2.24689 37.644
rfemur -8.94541 3.42588 30.5368
rtibia 26.7398
rfoot -15.418 -4.40096
rtoes 7.73382
lfemur -29.4027 0.490893 -12.6511
ltibia 63.6964
lfoot -6.15797 1.14878
ltoes -14.1051
88
root 1.75659 18.2663 -2.70676 2.15947 1.29715 -3.06085
lowerback 2.42746 1.3916 4.42898
upperback 1.26408 1.9512 1.66572
thorax 0.027643 0.990804 -0.815186
lowerneck -13.304 -3.12303 -3.54752
upperneck 17.1186 -3.65465 0.70334
head 7.54211 -1.90659 0.435177
rclavicle -1.08835e-014 7.95139e-016
rhumerus -12.2727 -8.80923 -82.3406
rradius 28.0371
rwrist 6.21351
rhand -16.8437 33.6563
rfingers 7.12502
rthumb 9.38618 3.88531
lclavicle -1.08835e-014 7.95139e-016
lhumerus -38.5351 -39.3558 75.0618
lradius 85.6662
lwrist 5.90837
lhand -28.166 7.3522
lfingers 7.12502
lthumb -1.54625 37.3263
rfemur -8.45389 3.21611 30.3566
rtibia 26.661
rfoot -15.8806 -3.74386
rtoes 7.35269
lfemur -30.0725 0.393837 -12.8969
ltibia 62.1135
lfoot -7.24399 1.58241
ltoes -15.9972
89
root 1.75452 18.2691 -2.55549 2.28117 1.06492 -3.07593
lowerback 2.4234 1.35404 4.43251
upperback 1.28575 1.89995 1.63101
thorax 0.0511177 0.965996 -0.851237
lowerneck -13.2739 -2.95781 -3.49497
upperneck 16.7567 -3.4156 0.582025
head 7.40969 -1.79921 0.414926
rclavicle 1.59028e-014 1.35174e-014
rhumerus -11.5179 -7.14973 -82.8639
rradius 29.4173
rwrist 5.19652
rhand -17.048 33.6708
rfingers 7.12502
rthumb 9.18898 3.89098
lclavicle 1.59028e-014 1.35174e-014
lhumerus -38.4256 -39.1655 74.751
lradius 85.7428
lwrist 5.54396
lhand -26.5827 7.56313
lfingers 7.12502
lthumb -0.0170402 37.5429
rfemur -8.00708 3.19311 30.4071
rtibia 26.5238
rfoot -15.6701 -3.99294
rtoes 10.1905
lfemur -30.7771 0.273774 -12.8438
ltibia 60.4427
lfoot -8.26049 1.7965
ltoes -17.5426
90
root 1.75013 18.269 -2.41229 2.37896 0.878995 -3.4267
lowerback 2.74194 1.33125 4.86583
upperback 1.19079 1.903 1.61107
thorax -0.209267 0.962876 -1.12338
lowerneck -13.2762 -2.79427 -3.29458
upperneck 16.4688 -3.2057 0.436437
head 7.30533 -1.6985 0.358381
rclavicle -1.3418e-014 1.19271e-014
rhumerus -11.1984 -5.54695 -83.3163
rradius 31.2185
rwrist 3.77036
rhand -16.8821 33.5327
rfingers 7.12502
rthumb 9.34911 3.76
lclavicle -1.3418e-014 1.19271e-014
lhumerus -38.4141 -39.2718 74.4925
lradius 85.9488
lwrist 6.23165
lhand -26.1343 8.12839
lfingers 7.12502
lthumb 0.416 38.1077
rfemur -7.39696 3.33297 30.8762
rtibia 26.2657
rfoot -15.2834 -4.71243
rtoes 9.29881
lfemur -31.472 -0.000762465 -12.3485
ltibia 58.6359
lfoot -8.86854 2.05862
ltoes -18.4873
91
root 1.74946 18.2703 -2.26113 2.42623 0.63614 -3.85626
lowerback 3.04885 1.4002 5.34844
upperback 1.08825 2.0332 1.65585
thorax -0.463629 1.02169 -1.35985
lowerneck -13.271 -2.74194 -3.10366
upperneck 16.2465 -3.13459 0.224067
head 7.22367 -1.67108 0.267008
rclavicle 6.13748e-015 1.59028e-015
rhumerus -11.1135 -4.39129 -83.566
rradius 33.0747
rwrist 2.38031
rhand -16.6292 33.4715
rfingers 7.12502
rthumb 9.59312 3.70989
lclavicle 6.13748e-015 1.59028e-015
lhumerus -38.4774 -39.6021 74.5177
lradius 86.164
lwrist 6.95732
lhand -27.6353 8.43076
lfingers 7.12502
lthumb -1.03366 38.408
rfemur -6.59911 3.21975 31.3843
rtibia 25.823
rfoot -15.1067 -4.57608
rtoes 7.1664
lfemur -31.9467 -0.242186 -11.7806
ltibia 56.6053
lfoot -9.32532 2.61624
ltoes -16.7679
